<mxfile host="Electron" modified="2023-05-07T15:20:12.473Z" agent="Mozilla/5.0 (Windows NT 10.0; Win64; x64) AppleWebKit/537.36 (KHTML, like Gecko) draw.io/21.2.8 Chrome/112.0.5615.165 Electron/24.2.0 Safari/537.36" etag="s7wo_tIQMMZ4I4gcGjnf" version="21.2.8" type="device">
  <diagram name="Page-1" id="ik0VpQQ1ttGzeOW6tWPW">
    <mxGraphModel dx="1098" dy="797" grid="1" gridSize="10" guides="1" tooltips="1" connect="1" arrows="1" fold="1" page="1" pageScale="1" pageWidth="827" pageHeight="1169" math="0" shadow="0">
      <root>
        <mxCell id="0" />
        <mxCell id="1" parent="0" />
        <mxCell id="4nL-38JFgl4hAv-z__2A-1" value="User" style="shape=umlActor;verticalLabelPosition=bottom;verticalAlign=top;html=1;outlineConnect=0;" vertex="1" parent="1">
          <mxGeometry x="130" y="200" width="30" height="60" as="geometry" />
        </mxCell>
        <mxCell id="4nL-38JFgl4hAv-z__2A-4" value="Synchronize a folder" style="ellipse;whiteSpace=wrap;html=1;" vertex="1" parent="1">
          <mxGeometry x="600" y="190" width="120" height="70" as="geometry" />
        </mxCell>
        <mxCell id="4nL-38JFgl4hAv-z__2A-6" value="" style="endArrow=none;html=1;rounded=0;" edge="1" parent="1" source="4nL-38JFgl4hAv-z__2A-1">
          <mxGeometry width="50" height="50" relative="1" as="geometry">
            <mxPoint x="200" y="260" as="sourcePoint" />
            <mxPoint x="330" y="130" as="targetPoint" />
          </mxGeometry>
        </mxCell>
        <mxCell id="4nL-38JFgl4hAv-z__2A-7" value="Create a file&amp;nbsp;" style="ellipse;whiteSpace=wrap;html=1;" vertex="1" parent="1">
          <mxGeometry x="320" y="80" width="120" height="80" as="geometry" />
        </mxCell>
        <mxCell id="4nL-38JFgl4hAv-z__2A-8" value="Update a file&amp;nbsp;" style="ellipse;whiteSpace=wrap;html=1;" vertex="1" parent="1">
          <mxGeometry x="320" y="190" width="120" height="80" as="geometry" />
        </mxCell>
        <mxCell id="4nL-38JFgl4hAv-z__2A-9" value="Delete a file" style="ellipse;whiteSpace=wrap;html=1;" vertex="1" parent="1">
          <mxGeometry x="320" y="300" width="120" height="80" as="geometry" />
        </mxCell>
        <mxCell id="4nL-38JFgl4hAv-z__2A-10" value="&amp;lt;&amp;lt;extend&amp;gt;&amp;gt;" style="endArrow=classic;html=1;rounded=0;exitX=0;exitY=0.5;exitDx=0;exitDy=0;entryX=1;entryY=0.5;entryDx=0;entryDy=0;dashed=1;strokeWidth=2;" edge="1" parent="1" source="4nL-38JFgl4hAv-z__2A-4" target="4nL-38JFgl4hAv-z__2A-7">
          <mxGeometry width="50" height="50" relative="1" as="geometry">
            <mxPoint x="520" y="290" as="sourcePoint" />
            <mxPoint x="570" y="240" as="targetPoint" />
          </mxGeometry>
        </mxCell>
        <mxCell id="4nL-38JFgl4hAv-z__2A-11" value="&amp;lt;&amp;lt;extend&amp;gt;&amp;gt;" style="endArrow=classic;html=1;rounded=0;exitX=0;exitY=0.5;exitDx=0;exitDy=0;entryX=1.025;entryY=0.413;entryDx=0;entryDy=0;dashed=1;strokeWidth=2;entryPerimeter=0;" edge="1" parent="1" source="4nL-38JFgl4hAv-z__2A-4" target="4nL-38JFgl4hAv-z__2A-8">
          <mxGeometry width="50" height="50" relative="1" as="geometry">
            <mxPoint x="590" y="245" as="sourcePoint" />
            <mxPoint x="450" y="200" as="targetPoint" />
          </mxGeometry>
        </mxCell>
        <mxCell id="4nL-38JFgl4hAv-z__2A-12" value="&amp;lt;&amp;lt;extend&amp;gt;&amp;gt;" style="endArrow=classic;html=1;rounded=0;exitX=0;exitY=0.5;exitDx=0;exitDy=0;entryX=1;entryY=0.35;entryDx=0;entryDy=0;dashed=1;strokeWidth=2;entryPerimeter=0;" edge="1" parent="1" source="4nL-38JFgl4hAv-z__2A-4" target="4nL-38JFgl4hAv-z__2A-9">
          <mxGeometry width="50" height="50" relative="1" as="geometry">
            <mxPoint x="620" y="362.5" as="sourcePoint" />
            <mxPoint x="480" y="317.5" as="targetPoint" />
          </mxGeometry>
        </mxCell>
        <mxCell id="4nL-38JFgl4hAv-z__2A-13" value="" style="endArrow=none;html=1;rounded=0;entryX=0;entryY=0.5;entryDx=0;entryDy=0;" edge="1" parent="1" source="4nL-38JFgl4hAv-z__2A-1" target="4nL-38JFgl4hAv-z__2A-8">
          <mxGeometry width="50" height="50" relative="1" as="geometry">
            <mxPoint x="190" y="270" as="sourcePoint" />
            <mxPoint x="310" y="180" as="targetPoint" />
          </mxGeometry>
        </mxCell>
        <mxCell id="4nL-38JFgl4hAv-z__2A-15" value="" style="endArrow=none;html=1;rounded=0;entryX=0;entryY=0.325;entryDx=0;entryDy=0;entryPerimeter=0;" edge="1" parent="1" source="4nL-38JFgl4hAv-z__2A-1" target="4nL-38JFgl4hAv-z__2A-9">
          <mxGeometry width="50" height="50" relative="1" as="geometry">
            <mxPoint x="190" y="280" as="sourcePoint" />
            <mxPoint x="330" y="240" as="targetPoint" />
          </mxGeometry>
        </mxCell>
        <mxCell id="4nL-38JFgl4hAv-z__2A-16" value="&amp;lt;&amp;lt;include&amp;gt;&amp;gt;" style="endArrow=classic;html=1;rounded=0;entryX=0.675;entryY=0.013;entryDx=0;entryDy=0;dashed=1;strokeWidth=2;entryPerimeter=0;" edge="1" parent="1" source="4nL-38JFgl4hAv-z__2A-4" target="4nL-38JFgl4hAv-z__2A-17">
          <mxGeometry width="50" height="50" relative="1" as="geometry">
            <mxPoint x="680" y="550" as="sourcePoint" />
            <mxPoint x="520" y="653" as="targetPoint" />
          </mxGeometry>
        </mxCell>
        <mxCell id="4nL-38JFgl4hAv-z__2A-17" value="From network" style="ellipse;whiteSpace=wrap;html=1;" vertex="1" parent="1">
          <mxGeometry x="510" y="380" width="120" height="80" as="geometry" />
        </mxCell>
        <mxCell id="4nL-38JFgl4hAv-z__2A-18" value="From disk" style="ellipse;whiteSpace=wrap;html=1;" vertex="1" parent="1">
          <mxGeometry x="700" y="380" width="120" height="80" as="geometry" />
        </mxCell>
        <mxCell id="4nL-38JFgl4hAv-z__2A-19" value="&amp;lt;&amp;lt;include&amp;gt;&amp;gt;" style="endArrow=classic;html=1;rounded=0;entryX=0.383;entryY=-0.037;entryDx=0;entryDy=0;dashed=1;strokeWidth=2;entryPerimeter=0;exitX=0.767;exitY=1;exitDx=0;exitDy=0;exitPerimeter=0;" edge="1" parent="1" source="4nL-38JFgl4hAv-z__2A-4" target="4nL-38JFgl4hAv-z__2A-18">
          <mxGeometry width="50" height="50" relative="1" as="geometry">
            <mxPoint x="735" y="260" as="sourcePoint" />
            <mxPoint x="680" y="392" as="targetPoint" />
          </mxGeometry>
        </mxCell>
      </root>
    </mxGraphModel>
  </diagram>
</mxfile>
